<svg id="Layer_1" data-name="Layer 1" xmlns="http://www.w3.org/2000/svg" viewBox="0 0 1080 512"><defs><style>.cls-1{fill:#1d182a;}.cls-2{fill:#64b0fc;}.cls-3{fill:#36a6d0;}.cls-4{fill:#3dcfec;}.cls-5{fill:#5fd7f1;}</style></defs><path class="cls-1" d="M284,181V0H796V512H284V181M688.3,85.94l-1.08-.38a12,12,0,0,1,.8,2.23l1.51,1.31a26.62,26.62,0,0,0-1.23-3.16M596.85,253.86l-5.13,8.28c.67.36,1.34.72,2,1.09,1.46-3.06,2.91-6.11,4.9-9.49l1-2.32-.74-.38a11.74,11.74,0,0,1-2,2.82m39.28,19.24c2.65-5.47,5.43-10.88,7.94-16.41a137.27,137.27,0,0,0,11.71-47.13c.78-11.2,0-22.56-.86-33.8-1.21-16.22-6.17-31.54-12.79-46.35-8.69-19.45-21.27-36.07-36.78-50.56A149.28,149.28,0,0,0,558.51,49,170.41,170.41,0,0,0,510.23,37.7c-15.22-1.37-30,0-44.76,2.74-16.13,2.94-31.23,9.26-45.56,17.19-4.93,2.73-9.49,6.1-14.22,9.18l.65,1.14c5.85-2.79,11.66-5.64,17.53-8.36a144.45,144.45,0,0,1,53.27-13.35c11.81-.62,23.84.36,35.61,1.87,30.77,4,57.69,17.08,80.91,37.27a157.2,157.2,0,0,1,46.55,69.05c4.14,12.19,7.48,24.57,7.75,37.51.25,12.05,1,24.21-.33,36.12-1.7,15.52-6.57,30.45-13.19,45.14l-.08,1.24a10.48,10.48,0,0,1,1.77-1.34M442.82,364.39l-1.32-.13c.29.45.58.9,1.29,1.91,88.05,50.09,210.05,24.15,263.72-79.58C727,247,731.85,204.42,722.72,160.68a172.15,172.15,0,0,0-32.26-70.79,10.32,10.32,0,0,0,1.34,4.53c2.74,5.58,5.59,11.1,8.22,16.72,11.73,25.09,16.26,51.81,16.79,79.2.18,9.45-1.56,19-2.84,28.41-3.73,27.57-14.13,52.67-29.17,75.86a182.39,182.39,0,0,1-40.26,44.44c-15.28,12-31.63,22-49.82,29.14A198.42,198.42,0,0,1,541,381.12c-18.89,1.81-37.64,1.46-56-3.2-14.18-3.59-28-8.62-42.23-13.53M415.49,294c38.66,29.17,80.46,33.36,125,15.76,13-5.12,37.19-23.6,37.81-29l-5.18,1.8c.35-1.31.64-2.22.84-3.16,2-9.42,4.35-18.8,6-28.3.72-4.24.14-8.71,0-13.07-.11-2.64-1.56-5.65-.7-7.83,2.28-5.78-1.36-7.13-5.33-8.23a11.24,11.24,0,0,0-5.84.13,17,17,0,0,0-5.61,3c-2.77,2.19-5.11,1.41-6.68-1.06-4.15-6.55-11.58-12-7.77-21.47a2.53,2.53,0,0,0,0-2c-3.37-5.39.38-9.58,2.2-14.15,1.17-3,1.91-6.1,2.9-9.14a14.75,14.75,0,0,1,1.19-2.47c2.87-5.16,8.88-5.19,13.18-8,3.17-2.08,4.61-.51,5.7,2.67a7.44,7.44,0,0,0,3.63,3.67c2,1,4.32,1.26,6.5,1.84l-1.72-2.16c1.56-.56,3.64-2.05,4.58-1.52,2.84,1.61,7-1.31,9,3.45,4,9.84,8.5,19.46,12.82,29.2,4.77-2.89,5.53-6.75,2.75-12.31-.81,1.9-1.65,3.9-2.49,5.88-1.47-3.72-2.48-7.13-4.1-10.22-2.62-5-5.66-9.81-8.49-14.71a3.47,3.47,0,0,1-.23-1.39c-.35-3.74-.68-7.48-1-11.32-8.21,1.63-8.9,1.11-8.79-6.29L579.66,157l-10.4-7.21c-1.15,1.42-1.73,2.85-2.71,3.23-5.51,2.11-7.64,6.09-7.74,11.81,0,2.35-1.65,3.58-4.55,2.87-5.51-1.34-3.67-6-5.14-9.38l8.44-2.08-4.1-7c2.85-7.45,7.79-12.32,14.3-13.39.64-4.21,1.13-7.42,1.67-11-4.66,1.4-7.9.71-7.72-5.08,0-.46-1.67-1-2.56-1.47L558,119c1.48,4.87,3,9.74,4.43,14.56-2.45-1.1-4.46-2.11-6.55-2.91-1-.36-2.65.06-3-.49a8.13,8.13,0,0,1-1.14-4.3c.07-1.72,1.33-3.47,1.14-5.09-.84-7,1.84-9.21,10.39-7.07.87.22,1.72.56,3.3,1.08l-3.26,1.86,6.77,4.16c0-3.89-.73-6.68.16-8.78,1.47-3.46-.31-5.19-2.52-6.59-9.16-5.75-18.21-11.72-27.73-16.8-12.82-6.82-27-9.61-41.28-10.53-23.92-1.52-46.67,3.34-67.53,15.38-7.75,4.47-14.88,10-22.42,15.15l4.76,3.1c2.06,1.36,3.94,3.35,6.2,4,8.26,2.28,16.65,4,25,6.12,6.27,1.55,7.65.88,8.59-4.48,0-.09.59-.09.91-.12,3,6.86,4,7.24,9,2.8-1.16,6.27-5.83,3.24-8.69,4.29.3.71.6,1.42.56,1.34-2.58,2.14-5.47,3.76-7,6.21-.78,1.22.25,5.1,1.56,5.85,3.79,2.18,8.58,2.79,9.53,8.3a3.13,3.13,0,0,0,2.53,1.72c.7-.06,1.39-1.46,1.91-2.36.79-1.39,1.45-2.86,2.13-4.31a9,9,0,0,0,1.17-2.87c.18-2.32.06-4.66.06-8.71,3.07,2.12,5.48,3,6.41,4.61,2.06,3.69,4.28,3.49,6.79,1.59l8.9,10.95a15.65,15.65,0,0,1-4.09,2.14c-1.9.45-4-.1-6,.26-3.25.62-6.24,1.84-7.94,6.41l5.41-3.21,2.05,3.24c-3.85,3.06-7.24,6-10.87,8.56-3.18,2.28-7,3.84-5.8,9,.16.72-1.63,2.12-2.75,2.85-4.05,2.64-6,5.94-4.07,10.82a19.63,19.63,0,0,1,.66,3.22c-.84-.37-1.21-.42-1.38-.63-.3-.38-.72-.87-.69-1.29.46-5.93-3.92-6.39-7.94-6.65a40.68,40.68,0,0,0-9.7.8,5.22,5.22,0,0,0-3.54,2.46c-1.95,5.07-3.9,10.38-1.09,15.7.82,1.54,2.93,3.37,4.4,3.33,1.78-.05,3.69-1.74,5.19-3.11.95-.88,1.25-2.46,1.85-3.73l1.72,1.51q-1.37,5-2.73,10l7.66,1.58c-.32,3.37-.58,6.13-.75,7.82-4.71-3.84-8.86-9.62-14.14-11-8.55-2.16-13.9-5.48-14.61-14.59-.05-.59-.68-1.11-.91-1.71-1.71-4.36-3.38-8.73-5.08-13.09-.39-1-.82-2-1.59-3.86l-1.83,4.35c-.58-2.23-1.08-4.42-1.72-6.57-.88-2.91-3.05-6-2.55-8.64,1.15-5.87,3.6-11.49,5.26-16.42a78.76,78.76,0,0,1-1.06-9.08c0-3.54,1.55-7-1.51-10.31-3.48-3.72-12.05-4.83-14.74-1.3-13.78,18.09-22.17,38.55-24,61.12-2.16,26.37,2.23,51.62,16.45,74.62A126.74,126.74,0,0,0,415.49,294m234-220c-28.08-29.73-62.25-47.57-102-53.09C633.63,49.32,681.09,107,681,200.38c-6.81,74-45.62,124.34-113.32,153.44a7.4,7.4,0,0,0,2.21.09A162.51,162.51,0,0,0,635.31,319a174.28,174.28,0,0,0,33.75-39.41,169.25,169.25,0,0,0,24.71-74.47c1.05-11.65-.06-23.55-.84-35.29-1.28-19.4-7.37-37.57-15.62-55-7-14.8-16.56-27.94-27.78-40.77m-105.4,384.6c0-5,.67-10.21-.33-15-1.84-8.95-7.27-15.51-16.47-17.72-8.6-2.06-16.81-1.61-23.88,5.08s-8.35,15-8.58,24.23c-.33,13,9.26,27.4,26,26,12.25-1,21.83-9.05,23.25-22.57M452,438.49V426.25h-6.7v53.38h6.81V455.31h26.06v24.44h6.53V426.37h-6.82v22.31H452V438.49m128.42,16.57c6.37-5.26,6.63-12.1,4.81-19.35-1.59-6.36-6.76-8.74-12.42-9.52-4.9-.68-10,0-14.95-.25-3.68-.18-5,1.09-4.93,4.84.22,8.49.07,17,.07,25.47v23.42h7.22v-19.1c7.13-1.81,13.39-3.4,20.2-5.51M415,444.47c-5.08-4.9-2-12.23,4-12.8,4.3-.4,8.75.72,13.5,1.2.43-1.31,1-3.12,1.59-4.88-5.1-3.27-12.88-4.07-19.06-2.07-6.94,2.26-9.66,6.4-10.13,13.4-.51,7.69,4.41,12.24,11.84,15.61,2.51,1.13,5.44,1.93,7.28,3.78,2.1,2.1,4.35,5.16,4.45,7.87.13,3.55-2.3,7.27-6.47,7.35-5.59.1-11.21-.76-17.1-1.23l-1.36,6.73c5.73.56,10.87,1,16,1.58,7,.74,14.75-4.61,16.35-10.95,2.1-8.36-1.19-15.08-9.18-19.14-3.77-1.91-7.48-3.94-11.74-6.45m251.17,34.62,6.86,1.17c0-3.3.16-5.78,0-8.23-.71-8.93.49-17.1,6.09-24.71,4.69-6.37,8.1-13.68,12.18-20.74-8.39-1.29-8.37-1.29-11.77,5.46-3,6-6.13,12-9.55,18.72-3.43-6.82-6.45-12.81-9.45-18.81-3.42-6.82-3.41-6.82-11.67-5.27,3,5.57,5.64,11.19,8.92,16.41,5.42,8.64,10,17.37,8.33,28.09-.35,2.28,0,4.66.09,7.91M615,454.5v25.27h7V455.89h21c-.11-2.27-.2-4-.3-6.06H622.34V431.78H644c-.1-2.15-.17-3.75-.25-5.46H615V454.5m-19,4v21.27h6.74V426.33H596V458.5m14-240.88,1.24-11.56-1.14-.15Q605.23,226,600.3,246l2.71.68c2.33-9.4,4.66-18.79,7-29.07m-6.88-49.78,4.3,10.23c2.67-5.46.27-8.54-4.3-10.23M404.5,68.22l-2.12,1,.55.89a3.08,3.08,0,0,0,1.57-1.92m175.15,211,.23.87C580,279.78,580.1,279.48,579.65,279.21Z"/><path class="cls-2" d="M415.23,293.76a125.6,125.6,0,0,1-28.6-32.44c-14.22-23-18.61-48.25-16.45-74.62,1.84-22.57,10.23-43,24-61.12,2.69-3.53,11.26-2.42,14.74,1.3,3.06,3.27,1.51,6.77,1.51,10.31a78.76,78.76,0,0,0,1.06,9.08c-1.66,4.93-4.11,10.55-5.26,16.42-.5,2.61,1.67,5.73,2.55,8.64.64,2.15,1.14,4.34,1.72,6.57l1.83-4.35c.77,1.84,1.2,2.84,1.59,3.86,1.7,4.36,3.37,8.73,5.08,13.09.23.6.86,1.12.91,1.71.71,9.11,6.06,12.43,14.61,14.59,5.28,1.34,9.43,7.12,14.14,11,.17-1.69.43-4.45.75-7.82l-7.66-1.58q1.37-5,2.73-10l-1.72-1.51c-.6,1.27-.9,2.85-1.85,3.73-1.5,1.37-3.41,3.06-5.19,3.11-1.47,0-3.58-1.79-4.4-3.33-2.81-5.32-.86-10.63,1.09-15.7A5.22,5.22,0,0,1,436,182.2a40.68,40.68,0,0,1,9.7-.8c4,.26,8.4.72,7.94,6.65,0,.42.39.91.69,1.29.17.21.54.26,1.38.63a19.63,19.63,0,0,0-.66-3.22c-2-4.88,0-8.18,4.07-10.82,1.12-.73,2.91-2.13,2.75-2.85-1.17-5.18,2.62-6.74,5.8-9,3.63-2.58,7-5.5,10.87-8.56l-2.05-3.24L471,155.47c1.7-4.57,4.69-5.79,7.94-6.41,1.93-.36,4.06.19,6-.26a15.65,15.65,0,0,0,4.09-2.14l-8.9-10.95c-2.51,1.9-4.73,2.1-6.79-1.59-.93-1.66-3.34-2.49-6.41-4.61,0,4.05.12,6.39-.06,8.71a9,9,0,0,1-1.17,2.87c-.68,1.45-1.34,2.92-2.13,4.31-.52.9-1.21,2.3-1.91,2.36a3.13,3.13,0,0,1-2.53-1.72c-.95-5.51-5.74-6.12-9.53-8.3-1.31-.75-2.34-4.63-1.56-5.85,1.58-2.45,4.47-4.07,7-6.21,0,.08-.26-.63-.56-1.34,2.86-1,7.53,2,8.69-4.29-5,4.44-6,4.06-9-2.81-.32,0-.9,0-.91.13-.94,5.36-2.32,6-8.59,4.48-8.32-2.07-16.71-3.84-25-6.12-2.26-.63-4.14-2.62-6.2-4l-4.76-3.1c7.54-5.14,14.67-10.68,22.42-15.15,20.86-12,43.61-16.9,67.53-15.38C513.05,79,527.2,81.83,540,88.65c9.52,5.08,18.57,11,27.73,16.8,2.21,1.4,4,3.13,2.52,6.59-.89,2.1-.16,4.89-.16,8.78l-6.77-4.16,3.26-1.86c-1.58-.52-2.43-.86-3.3-1.08-8.55-2.14-11.23.06-10.39,7.07.19,1.62-1.07,3.37-1.14,5.09a8.13,8.13,0,0,0,1.14,4.3c.35.55,2,.13,3,.49,2.09.8,4.1,1.81,6.55,2.91-1.47-4.82-3-9.69-4.43-14.56l1.12-.66c.89.49,2.57,1,2.56,1.47-.18,5.79,3.06,6.48,7.72,5.08-.54,3.53-1,6.74-1.67,11-6.51,1.07-11.45,5.94-14.3,13.39l4.1,7-8.44,2.08c1.47,3.41-.37,8,5.14,9.38,2.9.71,4.51-.52,4.55-2.87.1-5.72,2.23-9.7,7.74-11.81,1-.38,1.56-1.81,2.71-3.23l10.4,7.21,5.84-3.35c-.11,7.4.58,7.92,8.79,6.29.35,3.84.68,7.58,1,11.32a3.47,3.47,0,0,0,.23,1.39c2.83,4.9,5.87,9.7,8.49,14.71,1.62,3.09,2.63,6.5,4.1,10.22.84-2,1.68-4,2.49-5.88,2.78,5.56,2,9.42-2.75,12.31-4.32-9.74-8.85-19.36-12.82-29.2-1.92-4.76-6.13-1.84-9-3.45-.94-.53-3,1-4.58,1.52l1.72,2.16c-2.18-.58-4.52-.85-6.5-1.84a7.44,7.44,0,0,1-3.63-3.67c-1.09-3.18-2.53-4.75-5.7-2.67-4.3,2.83-10.31,2.86-13.18,8a14.75,14.75,0,0,0-1.19,2.47c-1,3-1.73,6.17-2.9,9.14-1.82,4.57-5.57,8.76-2.2,14.15a2.53,2.53,0,0,1,0,2c-3.81,9.47,3.62,14.92,7.77,21.47,1.57,2.47,3.91,3.25,6.68,1.06a17,17,0,0,1,5.61-3,11.24,11.24,0,0,1,5.84-.13c4,1.1,7.61,2.45,5.33,8.23-.86,2.18.59,5.19.7,7.83.17,4.36.75,8.83,0,13.07-1.61,9.5-3.92,18.88-6,28.3-.2.94-.49,1.85-.84,3.16l5.18-1.8c-.62,5.39-24.86,23.87-37.81,29-44.55,17.6-86.35,13.41-125.27-16M459.5,116.14l.2.74a8.68,8.68,0,0,0,1-.79l-.22-.8a5.16,5.16,0,0,1-1,.85m-16.68-.49-6.58-3c.43,2.22.7,3.66,1.05,5.48H445a3.28,3.28,0,0,1-.39-2.35l.09-1.25a5.58,5.58,0,0,1-1.84,1.1m72.36-9.71c-5.39-3.22-11-3.45-16.93-1.59-2.17.68-4.76,2-6.59,1.42-3.8-1.29-6.26.59-9.1,2.13a38.19,38.19,0,0,1-4.11,1.7,29.71,29.71,0,0,0,4.22,1.34c6.46,1.08,9.9,6,10.89,12.44.53,3.39,3.93,6.41,6.34,9.35.32.38,3.44-.49,3.64-1.22,1.86-6.92,7.42-8.89,13.32-10.57a15,15,0,0,0,2.37-1.32l-2.53-1.3c.72-1.38,1.53-2.2,1.43-2.89a86.64,86.64,0,0,1-1.23-9.13l.49-1a9.14,9.14,0,0,1-2.21.64m-14,135.24a2.87,2.87,0,0,1-.61-.86l-3.26-.72c2.29-5.67-.27-10.44-6-11.58-1.11-.22-2.74,0-3.27-.67-4.06-5.12-9.39-6.67-15.63-8.17-4.16-1-3.75.4-4.35,3.7l-3.15-5c-3.53,2.44-6.08,5.37-5.93,9.92.11,3.55-1,6.31-2.92,9.48-1.73,2.85-1.58,7.58-.7,11.09,1,3.87,3.48,7.45,5.76,10.85a20.74,20.74,0,0,0,6,6.22c2.8,1.69,3.62,3.58,3.91,6.73.93,10.15-2.27,20.25-.15,30.37a2.8,2.8,0,0,1-.24,1.95c-2.58,3.67-.14,5.5,2.66,7.54,1.17-1.55,2.95-2.87,3.19-4.42,1-6.69,4.63-10.72,11.4-12-.26-1.6-.47-2.93-.61-3.79,2.16-.49,4.45-.32,5.51-1.38,2.54-2.53,4.4-5.72,6.72-8.49,1.8-2.14,3.53-5,5.9-5.84a10.92,10.92,0,0,0,7.41-8.48c1.18-5.37,2.72-10.29,6.76-14.4.87-.87.09-5.28-1.11-5.94-4.6-2.54-9.67-4.28-14.61-6.19-.67-.25-1.61.22-2.72.11M478,121.45c-2.75-1.48-5.43-3.11-8.28-4.36-1.58-.69-3.44-.73-5.89-1.2L462,118l11.88,3.94c-.7,2.81-1.73,5.53-1.37,5.72,2.1,1.15,4.53,1.72,8,2.86l-2.64-5.23,5.06.34a24.62,24.62,0,0,1-5-4.17m-6.37-12.34L483,104.25h-15.9l4.53,1.43-6.33,4.19.78,1.4C467.71,110.69,469.35,110.1,471.62,109.11Z"/><path class="cls-3" d="M443.07,364.92c14,4.38,27.8,9.41,42,13,18.35,4.66,37.1,5,56,3.2a198.42,198.42,0,0,0,53.68-12.93c18.19-7.11,34.54-17.11,49.82-29.14a182.39,182.39,0,0,0,40.26-44.44c15-23.19,25.44-48.29,29.17-75.86,1.28-9.43,3-19,2.84-28.41-.53-27.39-5.06-54.11-16.79-79.2-2.63-5.62-5.48-11.14-8.22-16.72a10.32,10.32,0,0,1-1.34-4.53,172.15,172.15,0,0,1,32.26,70.79c9.13,43.74,4.29,86.27-16.21,125.91-53.67,103.73-175.67,129.67-263.74,79.14A1.25,1.25,0,0,1,443.07,364.92Z"/><path class="cls-4" d="M649.77,74.27c11,12.58,20.53,25.72,27.54,40.52,8.25,17.44,14.34,35.61,15.62,55,.78,11.74,1.89,23.64.84,35.29a169.25,169.25,0,0,1-24.71,74.47A174.28,174.28,0,0,1,635.31,319a162.51,162.51,0,0,1-65.42,34.94,7.4,7.4,0,0,1-2.21-.09c67.7-29.1,106.51-79.42,113.32-153.44C681.09,107,633.63,49.32,547.51,20.93Q607.17,29.21,649.77,74.27Z"/><path class="cls-5" d="M634.92,272.93c6.14-14.42,11-29.35,12.71-44.87,1.31-11.91.58-24.07.33-36.12-.27-12.94-3.61-25.32-7.75-37.51a157.2,157.2,0,0,0-46.55-69.05c-23.22-20.19-50.14-33.32-80.91-37.27C501,46.6,489,45.62,477.14,46.24a144.45,144.45,0,0,0-53.27,13.35C418,62.31,412.19,65.16,406.34,68l-.65-1.14c4.73-3.08,9.29-6.45,14.22-9.18,14.33-7.93,29.43-14.25,45.56-17.19,14.73-2.69,29.54-4.11,44.76-2.74A170.41,170.41,0,0,1,558.51,49a149.28,149.28,0,0,1,46.84,29.81c15.51,14.49,28.09,31.11,36.78,50.56,6.62,14.81,11.58,30.13,12.79,46.35.83,11.24,1.64,22.6.86,33.8a137.27,137.27,0,0,1-11.71,47.13c-2.51,5.53-5.29,10.94-8.4,16.44A1.16,1.16,0,0,1,634.92,272.93Z"/><path class="cls-3" d="M544.08,459.05c-1.37,13.09-11,21.14-23.2,22.14-16.75,1.38-26.34-13-26-26,.23-9.2,1.46-17.5,8.58-24.23s15.28-7.14,23.88-5.08c9.2,2.21,14.63,8.77,16.47,17.72,1,4.83.28,10,.28,15.47m-33.34,12.89c9.61,4.67,14.64,4.25,20.55-2.85,7.43-8.93,7.29-23.07.09-32.18-6.78-8.57-18.64-7.69-24.71,1.93C501.37,447.23,500.86,462.14,510.74,471.94Z"/><path class="cls-3" d="M452,439v9.7h25.88V426.37h6.82v53.38h-6.53V455.31H452.11v24.32H445.3V426.25H452Z"/><path class="cls-3" d="M580.15,455.32c-6.54,1.85-12.8,3.44-19.93,5.25v19.1H553V456.25c0-8.49.15-17-.07-25.47-.09-3.75,1.25-5,4.93-4.84,5,.25,10-.43,14.95.25,5.66.78,10.83,3.16,12.42,9.52,1.82,7.25,1.56,14.09-5.08,19.61m-1.23-14.49c-3.43-9.42-8.67-9.9-18.53-8.14v20.09C574.37,453.94,577.82,449.87,578.92,440.83Z"/><path class="cls-3" d="M415.24,444.73c4,2.25,7.7,4.28,11.47,6.19,8,4.06,11.28,10.78,9.18,19.14-1.6,6.34-9.39,11.69-16.35,10.95-5.13-.55-10.27-1-16-1.58l1.36-6.73c5.89.47,11.51,1.33,17.1,1.23,4.17-.08,6.6-3.8,6.47-7.35-.1-2.71-2.35-5.77-4.45-7.87-1.84-1.85-4.77-2.65-7.28-3.78-7.43-3.37-12.35-7.92-11.84-15.61.47-7,3.19-11.14,10.13-13.4,6.18-2,14-1.2,19.06,2.07-.57,1.76-1.16,3.57-1.59,4.88-4.75-.48-9.2-1.6-13.5-1.2C412.94,432.24,409.89,439.57,415.24,444.73Z"/><path class="cls-3" d="M666.08,478.63c-.07-2.79-.38-5.17,0-7.45,1.66-10.72-2.91-19.45-8.33-28.09-3.28-5.22-5.92-10.84-8.92-16.41,8.26-1.55,8.25-1.55,11.67,5.27,3,6,6,12,9.45,18.81,3.42-6.69,6.51-12.69,9.55-18.72,3.4-6.75,3.38-6.75,11.77-5.46-4.08,7.06-7.49,14.37-12.18,20.74-5.6,7.61-6.8,15.78-6.09,24.71.19,2.45,0,4.93,0,8.23A35.28,35.28,0,0,1,666.08,478.63Z"/><path class="cls-3" d="M615,454V426.32h28.79c.08,1.71.15,3.31.25,5.46h-21.7v18.05h20.39c.1,2.07.19,3.79.3,6.06H622v23.88h-7Z"/><path class="cls-3" d="M596,458V426.33h6.74v53.44H596Z"/><path class="cls-2" d="M610,218.06c-2.35,9.84-4.68,19.23-7,28.63L600.3,246q4.92-20.06,9.83-40.1l1.14.15C610.86,209.91,610.44,213.76,610,218.06Z"/><path class="cls-2" d="M603.37,167.54c4.35,2,6.75,5.07,4.08,10.53C606,174.66,604.58,171.25,603.37,167.54Z"/><path class="cls-2" d="M598.08,254.07l-4.36,9.16c-.66-.37-1.33-.73-2-1.09a90.16,90.16,0,0,1,5.59-8.3A1.23,1.23,0,0,1,598.08,254.07Z"/><path class="cls-5" d="M404.77,68.44a6.12,6.12,0,0,1-1.84,1.7l-.55-.89A7.31,7.31,0,0,1,404.77,68.44Z"/><path class="cls-3" d="M688.62,86.37c.3.91.61,1.82.91,2.73a4.07,4.07,0,0,1-1.37-1.83A2.6,2.6,0,0,1,688.62,86.37Z"/><path class="cls-2" d="M597.62,253.69a15.31,15.31,0,0,1,1.24-2.65l.74.38a15.63,15.63,0,0,1-1.25,2.49C598.08,254.07,597.77,253.82,597.62,253.69Z"/><path class="cls-3" d="M442.55,365.45a3.53,3.53,0,0,1-1.05-1.19,3.54,3.54,0,0,1,1.44.39C443.07,364.92,442.74,365.29,442.55,365.45Z"/><path class="cls-2" d="M579.93,279.2a1,1,0,0,1,0,.88A1,1,0,0,1,579.93,279.2Z"/><path class="cls-5" d="M635.36,273.28a4.43,4.43,0,0,1-1,1.16,3.13,3.13,0,0,1,.32-1.37C634.92,272.93,635.21,273.16,635.36,273.28Z"/><path class="cls-3" d="M688.11,86.91a3.58,3.58,0,0,1-.89-1.35,4.55,4.55,0,0,1,1.24.6C688.62,86.37,688.3,86.75,688.11,86.91Z"/><path class="cls-1" d="M501.51,241.43c.82-.14,1.76-.61,2.43-.36,4.94,1.91,10,3.65,14.61,6.19,1.2.66,2,5.07,1.11,5.94-4,4.11-5.58,9-6.76,14.4a10.92,10.92,0,0,1-7.41,8.48c-2.37.88-4.1,3.7-5.9,5.84-2.32,2.77-4.18,6-6.72,8.49-1.06,1.06-3.35.89-5.51,1.38.14.86.35,2.19.61,3.79-6.77,1.32-10.38,5.35-11.4,12-.24,1.55-2,2.87-3.19,4.42-2.8-2-5.24-3.87-2.66-7.54a2.8,2.8,0,0,0,.24-1.95c-2.12-10.12,1.08-20.22.15-30.37-.29-3.15-1.11-5-3.91-6.73a20.74,20.74,0,0,1-6-6.22c-2.28-3.4-4.8-7-5.76-10.85-.88-3.51-1-8.24.7-11.09,1.92-3.17,3-5.93,2.92-9.48-.15-4.55,2.4-7.48,5.93-9.92l3.15,5c.6-3.3.19-4.7,4.35-3.7,6.24,1.5,11.57,3,15.63,8.17.53.67,2.16.45,3.27.67,5.73,1.14,8.29,5.91,6,11.58a9.34,9.34,0,0,1,3.1,1.07c-.43.87-.7,1.39-1,1.9Z"/><path class="cls-1" d="M516.43,106.53c.59,3,1.28,5.92,1.7,8.9.1.69-.71,1.51-1.43,2.89l2.53,1.3a15,15,0,0,1-2.37,1.32c-5.9,1.68-11.46,3.65-13.32,10.57-.2.73-3.32,1.6-3.64,1.22-2.41-2.94-5.81-6-6.34-9.35-1-6.42-4.43-11.36-10.89-12.44a29.71,29.71,0,0,1-4.22-1.34,38.19,38.19,0,0,0,4.11-1.7c2.84-1.54,5.3-3.42,9.1-2.13,1.83.62,4.42-.74,6.59-1.42a20.65,20.65,0,0,1,17.43,1.73A1.72,1.72,0,0,1,516.43,106.53Z"/><path class="cls-1" d="M478.06,121.81a42,42,0,0,0,4.91,3.81l-5.06-.34,2.64,5.23c-3.47-1.14-5.9-1.71-8-2.86-.36-.19.67-2.91,1.37-5.72L462,118l1.78-2.1c2.45.47,4.31.51,5.89,1.2A58.11,58.11,0,0,1,478.06,121.81Z"/><path class="cls-1" d="M471.3,109.31c-1.95.79-3.59,1.38-5.23,2l-.78-1.4,6.33-4.19-4.53-1.43H483C478.76,106.06,475.19,107.58,471.3,109.31Z"/><path class="cls-1" d="M444.08,116.07l.88,2.08h-7.67c-.35-1.82-.62-3.26-1.05-5.48,2.47,1.12,4.53,2,7.06,3.07A1.84,1.84,0,0,1,444.08,116.07Z"/><path class="cls-1" d="M443.62,115.7a4.08,4.08,0,0,1,1-1.15,3.35,3.35,0,0,1-.33,1.38C444.08,116.07,443.77,115.82,443.62,115.7Z"/><path class="cls-1" d="M516.05,106.07a4.15,4.15,0,0,1,1.34-.77,4.07,4.07,0,0,1-.73,1.11C516.43,106.53,516.17,106.23,516.05,106.07Z"/><path class="cls-1" d="M460.43,116.42l-.73.46c-.07-.25-.13-.5.14-.72A1.08,1.08,0,0,1,460.43,116.42Z"/><path class="cls-1" d="M460.05,116.05a1.59,1.59,0,0,1,.47-.76,1.85,1.85,0,0,1,.06,1C460.43,116.42,460.17,116.18,460.05,116.05Z"/><path class="cls-1" d="M510.42,471.75c-9.56-9.61-9.05-24.52-3.75-32.91,6.07-9.62,17.93-10.5,24.71-1.93,7.2,9.11,7.34,23.25-.09,32.18C525.38,476.19,520.35,476.61,510.42,471.75Z"/><path class="cls-1" d="M579,441.23c-1.13,8.64-4.58,12.71-18.56,11.55V432.69C570.25,430.93,575.49,431.41,579,441.23Z"/><path class="cls-2" d="M501.37,241.3a9.25,9.25,0,0,1-1.88,1.27,5.39,5.39,0,0,1,1.12-1.6A1.12,1.12,0,0,1,501.37,241.3Z"/></svg>