<?xml version="1.0" encoding="UTF-8"?>
<svg version="1.1" xmlns="http://www.w3.org/2000/svg" width="512" height="512">
<path d="M0 0 C1.01790619 0.00215515 2.03581238 0.0043103 3.08456421 0.00653076 C17.69363523 0.05620146 32.02575853 0.30709809 46.375 3.3125 C47.34985352 3.51117676 48.32470703 3.70985352 49.32910156 3.91455078 C97.7109774 14.03517194 141.69928269 35.9516877 177.375 70.3125 C178.3640332 71.26068604 178.3640332 71.26068604 179.37304688 72.22802734 C188.86130305 81.37247479 197.6012044 90.66984009 205.375 101.3125 C206.23306152 102.46355017 207.09113451 103.61459177 207.94921875 104.765625 C213.98736829 112.95680614 219.34595521 121.47054105 224.375 130.3125 C224.73948242 130.94430176 225.10396484 131.57610352 225.47949219 132.22705078 C247.08534998 169.97532572 256.85198095 212.74189997 256.6875 255.9375 C256.68534485 256.95540619 256.6831897 257.97331238 256.68096924 259.02206421 C256.63129854 273.63113523 256.38040191 287.96325853 253.375 302.3125 C253.07698486 303.77478027 253.07698486 303.77478027 252.77294922 305.26660156 C242.65232806 353.6484774 220.7358123 397.63678269 186.375 433.3125 C185.74287598 433.97185547 185.11075195 434.63121094 184.45947266 435.31054688 C175.31502521 444.79880305 166.01765991 453.5387044 155.375 461.3125 C154.22394983 462.17056152 153.07290823 463.02863451 151.921875 463.88671875 C143.73224019 469.92427396 135.22961724 475.30707302 126.375 480.3125 C125.66778809 480.7146875 124.96057617 481.116875 124.23193359 481.53125 C101.09654164 494.5566741 75.92537591 503.30551461 49.9375 508.625 C49.21860596 508.77235596 48.49971191 508.91971191 47.7590332 509.0715332 C33.08339502 511.86090125 18.55831162 512.66142619 3.64770508 512.62817383 C0.70811513 512.6250221 -2.2304558 512.64854926 -5.16992188 512.67382812 C-18.54306192 512.71848737 -31.43916711 511.51301542 -44.625 509.3125 C-46.33055054 509.03031616 -46.33055054 509.03031616 -48.07055664 508.74243164 C-91.33802759 500.97044532 -132.38793216 480.98345309 -165.625 452.3125 C-166.37007813 451.67828125 -167.11515625 451.0440625 -167.8828125 450.390625 C-181.38779833 438.57948485 -194.05918743 425.82889772 -204.625 411.3125 C-205.48149066 410.16255169 -206.33826433 409.01281411 -207.1953125 407.86328125 C-213.23534209 399.67315742 -218.61867614 391.16870382 -223.625 382.3125 C-224.0271875 381.60528809 -224.429375 380.89807617 -224.84375 380.16943359 C-237.8691741 357.03404164 -246.61801461 331.86287591 -251.9375 305.875 C-252.08485596 305.15610596 -252.23221191 304.43721191 -252.3840332 303.6965332 C-255.35789088 288.05024391 -255.99800362 272.57681954 -255.9375 256.6875 C-255.93534485 255.66959381 -255.9331897 254.65168762 -255.93096924 253.60293579 C-255.88129854 238.99386477 -255.63040191 224.66174147 -252.625 210.3125 C-252.42632324 209.33764648 -252.22764648 208.36279297 -252.02294922 207.35839844 C-241.90232806 158.9765226 -219.9858123 114.98821731 -185.625 79.3125 C-184.99287598 78.65314453 -184.36075195 77.99378906 -183.70947266 77.31445312 C-174.56502521 67.82619695 -165.26765991 59.0862956 -154.625 51.3125 C-153.47394983 50.45443848 -152.32290823 49.59636549 -151.171875 48.73828125 C-142.98224019 42.70072604 -134.47961724 37.31792698 -125.625 32.3125 C-124.91778809 31.9103125 -124.21057617 31.508125 -123.48193359 31.09375 C-100.34654164 18.0683259 -75.17537591 9.31948539 -49.1875 4 C-48.46860596 3.85264404 -47.74971191 3.70528809 -47.0090332 3.5534668 C-31.36274391 0.57960912 -15.88931954 -0.06050362 0 0 Z " fill="#002658" transform="translate(255.625,-0.3125)"/>
<path d="M0 0 C1.01790619 0.00215515 2.03581238 0.0043103 3.08456421 0.00653076 C17.69363523 0.05620146 32.02575853 0.30709809 46.375 3.3125 C47.34985352 3.51117676 48.32470703 3.70985352 49.32910156 3.91455078 C97.7109774 14.03517194 141.69928269 35.9516877 177.375 70.3125 C178.3640332 71.26068604 178.3640332 71.26068604 179.37304688 72.22802734 C188.86130305 81.37247479 197.6012044 90.66984009 205.375 101.3125 C206.23306152 102.46355017 207.09113451 103.61459177 207.94921875 104.765625 C213.98736829 112.95680614 219.34595521 121.47054105 224.375 130.3125 C224.73948242 130.94430176 225.10396484 131.57610352 225.47949219 132.22705078 C246.53299981 169.01029733 256.8147229 211.18156495 256.63574219 253.36938477 C256.62500101 256.37471625 256.63571452 259.37945187 256.6484375 262.38476562 C256.65530213 273.52502329 256.12766726 284.3004397 254.375 295.3125 C254.045 295.3125 253.715 295.3125 253.375 295.3125 C253.08014206 294.04070892 253.08014206 294.04070892 252.77932739 292.7432251 C250.95658508 288.29032627 248.31757985 285.73761591 244.90576172 282.42089844 C244.24222687 281.75999207 243.57869202 281.09908569 242.89505005 280.41815186 C240.70732291 278.24337135 238.50600481 276.0828907 236.3046875 273.921875 C234.78195558 272.41168619 233.26025091 270.90046094 231.73953247 269.38824463 C227.73992546 265.4152148 223.72932778 261.45348339 219.7154541 257.49487305 C213.28102933 251.14678432 206.86012016 244.78509304 200.44549942 238.41699982 C198.19881054 236.19082344 195.94545767 233.97155587 193.69137573 231.75286865 C192.32250746 230.39764859 190.95385337 229.04221214 189.58544922 227.68652344 C188.95274109 227.06729004 188.32003296 226.44805664 187.66815186 225.81005859 C186.19873039 224.34846163 184.78088279 222.83531276 183.375 221.3125 C183.375 220.6525 183.375 219.9925 183.375 219.3125 C182.67375 219.20236572 181.9725 219.09223145 181.25 218.97875977 C175.61482922 217.67285105 170.54628738 214.78177611 165.375 212.25 C164.199375 211.70150391 163.02375 211.15300781 161.8125 210.58789062 C154.7670188 207.13320297 150.64414428 204.4612914 147.375 197.3125 C146.43771482 195.5537871 145.49604774 193.7974048 144.55078125 192.04296875 C143.59308189 190.19700651 142.63869179 188.34932389 141.6875 186.5 C140.72678513 184.63853521 139.76460888 182.77782372 138.80078125 180.91796875 C138.38223877 180.10481201 137.96369629 179.29165527 137.5324707 178.45385742 C136.31429207 176.12141782 136.31429207 176.12141782 134.375 173.3125 C131.735 178.5925 129.095 183.8725 126.375 189.3125 C122.75281675 187.50140837 121.1554311 186.30221243 118.45874023 183.46459961 C117.69951767 182.67294907 116.9402951 181.88129852 116.1580658 181.06565857 C114.93320213 179.77825523 114.93320213 179.77825523 113.68359375 178.46484375 C111.91599362 176.64263762 110.14706761 174.82171688 108.37695312 173.00195312 C105.60660805 170.14587957 102.84516882 167.2844132 100.10571289 164.39868164 C88.50738322 152.20908528 78.22484259 143.19188883 62.375 137.3125 C60.7773893 136.67984262 59.18263057 136.03993541 57.59082031 135.39282227 C56.88266174 135.10705826 56.17450317 134.82129425 55.44488525 134.52687073 C43.82858829 129.46552824 40.14671692 120.05092878 35.46484375 108.83886719 C34.07033852 105.60626412 32.43711499 102.61622617 30.6875 99.5625 C28.375 95.52376761 28.375 95.52376761 28.375 93.3125 C27.715 93.3125 27.055 93.3125 26.375 93.3125 C26.13007813 94.14007813 25.88515625 94.96765625 25.6328125 95.8203125 C24.18306511 99.84538756 22.3026949 103.44477714 20.25 107.1875 C19.87746094 107.87585938 19.50492187 108.56421875 19.12109375 109.2734375 C18.21000474 110.95544798 17.29309685 112.63430436 16.375 114.3125 C12.82213073 112.81975342 10.73875566 110.8131054 8.15161133 107.98291016 C7.32587112 107.08923737 6.50013092 106.19556458 5.64936829 105.27481079 C4.76089706 104.31013885 3.87242584 103.34546692 2.95703125 102.3515625 C0.55352357 99.8016914 -1.86626052 97.26728474 -4.28338146 94.7303257 C-6.8043348 92.07751792 -9.30339117 89.40919108 -11.76342773 86.69970703 C-21.4907986 74.97270162 -21.4907986 74.97270162 -34.11767578 67.72277832 C-38.84101186 67.74006119 -42.74583853 69.26732024 -46.8923645 71.42547607 C-49.19980215 72.60677035 -51.58901937 73.29908082 -54.0703125 74.03125 C-55.636122 74.60922463 -57.1961655 75.20306386 -58.75 75.8125 C-60.04405762 76.31571777 -60.04405762 76.31571777 -61.36425781 76.82910156 C-83.00529831 85.51813074 -102.66188307 97.28657185 -119.625 113.3125 C-120.95441948 114.44212233 -122.28763718 115.56729312 -123.625 116.6875 C-140.77967768 131.74511288 -153.14558838 151.66886018 -162.9375 172.0625 C-163.34621338 172.91344238 -163.75492676 173.76438477 -164.17602539 174.64111328 C-181.86131779 212.33918875 -183.83109126 255.07674074 -174.625 295.3125 C-174.42261719 296.20582031 -174.22023438 297.09914063 -174.01171875 298.01953125 C-165.24203166 333.04447783 -144.32540052 369.25437015 -115.375 391.5 C-111.62556179 394.52421224 -108.32531392 397.6137798 -105.14453125 401.2265625 C-96.96270254 410.33378425 -88.19769824 418.89055924 -79.53344727 427.53442383 C-77.03175235 430.03034258 -74.53468276 432.53083387 -72.03884029 435.03260326 C-69.64159359 437.43431491 -67.24056452 439.83222967 -64.83984375 442.23046875 C-63.94410141 443.12823532 -63.04835907 444.02600189 -62.12547302 444.95097351 C-61.30023636 445.77305801 -60.47499969 446.59514252 -59.62475586 447.44213867 C-58.89848495 448.16761398 -58.17221405 448.89308929 -57.42393494 449.64054871 C-55.7181267 451.38315816 -55.7181267 451.38315816 -53.625 452.3125 C-53.625 452.9725 -53.625 453.6325 -53.625 454.3125 C-53.07150879 454.54067413 -52.51801758 454.76884827 -51.94775391 455.00393677 C-48.95349924 456.69080147 -46.88632832 458.81218982 -44.4609375 461.24951172 C-43.9595929 461.75056427 -43.45824829 462.25161682 -42.94171143 462.76785278 C-41.2896878 464.42126673 -39.64486017 466.08164955 -38 467.7421875 C-36.84988469 468.89603619 -35.69932461 470.0494417 -34.54833984 471.2024231 C-31.52054124 474.23785074 -28.49879159 477.27923122 -25.47827148 480.32189941 C-22.41098646 483.40958991 -19.33808868 486.49168285 -16.265625 489.57421875 C-10.85700651 495.00197063 -5.45334503 500.43461478 -0.05322266 505.87081909 C2.08585141 508.02174882 4.22872268 510.16876103 6.375 512.3125 C-10.90267406 512.66812027 -27.57736639 512.46066927 -44.625 509.3125 C-45.52814941 509.15152832 -46.43129883 508.99055664 -47.36181641 508.82470703 C-90.9746672 500.8582256 -132.05983856 481.26647312 -165.625 452.3125 C-166.37007813 451.67828125 -167.11515625 451.0440625 -167.8828125 450.390625 C-181.38779833 438.57948485 -194.05918743 425.82889772 -204.625 411.3125 C-205.48149066 410.16255169 -206.33826433 409.01281411 -207.1953125 407.86328125 C-213.23534209 399.67315742 -218.61867614 391.16870382 -223.625 382.3125 C-224.0271875 381.60528809 -224.429375 380.89807617 -224.84375 380.16943359 C-237.8691741 357.03404164 -246.61801461 331.86287591 -251.9375 305.875 C-252.08485596 305.15610596 -252.23221191 304.43721191 -252.3840332 303.6965332 C-255.35789088 288.05024391 -255.99800362 272.57681954 -255.9375 256.6875 C-255.93534485 255.66959381 -255.9331897 254.65168762 -255.93096924 253.60293579 C-255.88129854 238.99386477 -255.63040191 224.66174147 -252.625 210.3125 C-252.42632324 209.33764648 -252.22764648 208.36279297 -252.02294922 207.35839844 C-241.90232806 158.9765226 -219.9858123 114.98821731 -185.625 79.3125 C-184.99287598 78.65314453 -184.36075195 77.99378906 -183.70947266 77.31445312 C-174.56502521 67.82619695 -165.26765991 59.0862956 -154.625 51.3125 C-153.47394983 50.45443848 -152.32290823 49.59636549 -151.171875 48.73828125 C-142.98224019 42.70072604 -134.47961724 37.31792698 -125.625 32.3125 C-124.91778809 31.9103125 -124.21057617 31.508125 -123.48193359 31.09375 C-100.34654164 18.0683259 -75.17537591 9.31948539 -49.1875 4 C-48.46860596 3.85264404 -47.74971191 3.70528809 -47.0090332 3.5534668 C-31.36274391 0.57960912 -15.88931954 -0.06050362 0 0 Z " fill="#003379" transform="translate(255.625,-0.3125)"/>
<path d="M0 0 C-0.94875 0.886875 -1.8975 1.77375 -2.875 2.6875 C-31.02456169 31.06316259 -45.01217958 71.35683545 -45.4375 110.8125 C-45.25957067 137.43329996 -38.0313783 162.83883678 -25 186 C-24.37480469 187.11375 -23.74960938 188.2275 -23.10546875 189.375 C-1.65906575 225.71595173 33.11995715 249.70899503 73.57421875 260.38183594 C111.30091081 269.9957635 153.04483303 263.43947273 186.68359375 244.02734375 C196.38829136 238.09479009 205.30951179 231.34147452 214 224 C215.22863094 222.97852195 216.45768729 221.95755494 217.6875 220.9375 C218.8321875 219.9784375 218.8321875 219.9784375 220 219 C219.48411057 226.57960619 217.57785356 233.16304228 215.0625 240.3125 C214.66353516 241.45170898 214.26457031 242.59091797 213.85351562 243.76464844 C197.54964826 289.06302954 163.57022256 328.06483986 120 349 C93.9729678 360.83427242 67.97327648 367.1711962 39.37133789 367.24023438 C36.96659987 367.24988324 34.56273971 367.28096832 32.15820312 367.3125 C21.450419 367.38515864 11.46804219 366.20355434 1 364 C-0.44993532 363.7065504 -1.89996825 363.4135827 -3.35009766 363.12109375 C-50.25964938 353.39501166 -91.93460128 322.70383801 -118.21533203 283.171875 C-143.92899544 243.46298648 -155.51855822 192.30938062 -145.59082031 145.58447266 C-141.95224904 129.66797863 -137.29996339 114.61696685 -130 100 C-129.65743164 99.29472168 -129.31486328 98.58944336 -128.96191406 97.86279297 C-116.96230862 73.2652793 -99.48556415 51.89389116 -78 35 C-77.0615625 34.25621094 -76.123125 33.51242188 -75.15625 32.74609375 C-59.54236301 20.67890958 -20.71846414 -6.90615471 0 0 Z " fill="#FEEE4A" transform="translate(223,69)"/>
<path d="M0 0 C-0.51588943 7.57960619 -2.42214644 14.16304228 -4.9375 21.3125 C-5.33646484 22.45170898 -5.73542969 23.59091797 -6.14648438 24.76464844 C-22.45035174 70.06302954 -56.42977744 109.06483986 -100 130 C-118.27181531 138.3080406 -139.65794369 147 -160 147 C-160 111.03 -160 75.06 -160 38 C-154.72 39.32 -149.44 40.64 -144 42 C-105.60279723 51.04257499 -63.54172863 43.5043076 -30 23 C-20.48067525 16.97846095 -11.20364617 10.23321234 -3.25 2.234375 C-1 0 -1 0 0 0 Z " fill="#FDD221" transform="translate(443,288)"/>
<path d="M0 0 C0.66 0 1.32 0 2 0 C4.42623977 4.66041488 6.84717591 9.32353028 9.26318359 13.98925781 C10.08626511 15.57693105 10.91080488 17.16384917 11.73681641 18.75 C12.92211639 21.02668664 14.1021891 23.30601486 15.28125 25.5859375 C15.83903137 26.65320572 15.83903137 26.65320572 16.40808105 27.74203491 C19 32.77225659 19 32.77225659 19 35 C19.8470752 35.2582959 20.69415039 35.5165918 21.56689453 35.78271484 C25.19419391 37.06885584 28.53405727 38.68815077 31.9296875 40.4765625 C32.56488312 40.80667328 33.20007874 41.13678406 33.85452271 41.47689819 C35.86351848 42.52216266 37.86927961 43.57346663 39.875 44.625 C41.24458167 45.33894465 42.61437139 46.05249036 43.984375 46.765625 C47.3253399 48.50581304 50.66341954 50.25142112 54 52 C52.78058329 55.65825013 51.38075983 56.10259346 48.05909729 57.77934265 C47.37057175 58.11383926 46.6820462 58.44833588 45.97265625 58.79296875 C44.91648354 59.31930656 44.91648354 59.31930656 43.838974 59.85627747 C42.34916122 60.5963108 40.85694246 61.33151712 39.36254883 62.06225586 C37.07019155 63.18373709 34.78564109 64.31997009 32.50195312 65.45898438 C31.05512187 66.17535711 29.60786991 66.89088094 28.16015625 67.60546875 C27.13040428 68.11632271 27.13040428 68.11632271 26.07984924 68.63749695 C21.23325808 71 21.23325808 71 19 71 C18.76925781 71.78761719 18.53851563 72.57523437 18.30078125 73.38671875 C16.6187563 78.05901027 14.43108165 82.38811733 12.1875 86.8125 C11.76146484 87.66392578 11.33542969 88.51535156 10.89648438 89.39257812 C8.06918039 95.00869028 5.09645518 100.52790924 2 106 C1.34 106 0.68 106 0 106 C-2.42623977 101.33958512 -4.84717591 96.67646972 -7.26318359 92.01074219 C-8.08626511 90.42306895 -8.91080488 88.83615083 -9.73681641 87.25 C-10.92211639 84.97331336 -12.1021891 82.69398514 -13.28125 80.4140625 C-13.65310425 79.70255035 -14.0249585 78.99103821 -14.40808105 78.25796509 C-17 73.22774341 -17 73.22774341 -17 71 C-17.87398438 70.72599365 -18.74796875 70.4519873 -19.6484375 70.16967773 C-22.79867496 69.07026138 -25.65055565 67.78902261 -28.625 66.28515625 C-29.66140625 65.76373047 -30.6978125 65.24230469 -31.765625 64.70507812 C-32.83296875 64.16302734 -33.9003125 63.62097656 -35 63.0625 C-36.60101563 62.25522461 -36.60101563 62.25522461 -38.234375 61.43164062 C-40.22749371 60.42640476 -42.21978223 59.4195198 -44.2109375 58.41040039 C-47.13612063 56.93116519 -50.06716003 55.46398677 -53 54 C-50.98081959 51.83254866 -49.10333628 50.35234358 -46.48046875 48.984375 C-45.79412354 48.62335693 -45.10777832 48.26233887 -44.40063477 47.89038086 C-43.30513306 47.32589233 -43.30513306 47.32589233 -42.1875 46.75 C-41.06202759 46.16327515 -41.06202759 46.16327515 -39.91381836 45.56469727 C-37.6128958 44.36916988 -35.30721684 43.18332783 -33 42 C-32.29584961 41.63696777 -31.59169922 41.27393555 -30.86621094 40.89990234 C-19.39739656 35 -19.39739656 35 -17 35 C-16.7417041 34.1529248 -16.4834082 33.30584961 -16.21728516 32.43310547 C-14.93114416 28.80580609 -13.31184923 25.46594273 -11.5234375 22.0703125 C-11.19332672 21.43511688 -10.86321594 20.79992126 -10.52310181 20.14547729 C-9.47783734 18.13648152 -8.42653337 16.13072039 -7.375 14.125 C-6.66105535 12.75541833 -5.94750964 11.38562861 -5.234375 10.015625 C-3.49418696 6.6746601 -1.74857888 3.33658046 0 0 Z " fill="#FCD121" transform="translate(282,93)"/>
<path d="M0 0 C3.2271266 1.6135633 4.11519675 4.99009152 5.625 8.125 C5.99141602 8.84349121 6.35783203 9.56198242 6.73535156 10.30224609 C8.50589697 13.78910537 10.11649345 17.1822329 11.3203125 20.90625 C16.11305245 33.37261183 26.65192387 37.18815647 38.14974976 42.36764526 C39.86958681 43.13131215 41.59936895 43.87246534 43.32958984 44.61230469 C46 46 46 46 48 49 C47.47156494 49.27674561 46.94312988 49.55349121 46.39868164 49.83862305 C43.9526884 51.12044195 41.50759216 52.40396316 39.0625 53.6875 C38.23169922 54.12255859 37.40089844 54.55761719 36.54492188 55.00585938 C31.6028614 57.60188336 26.72413357 60.26913953 21.90795898 63.09301758 C20 64 20 64 17 64 C16.73268066 64.69762451 16.46536133 65.39524902 16.18994141 66.11401367 C14.91176495 69.21399806 13.46640028 72.17961512 11.9609375 75.17578125 C11.09082031 76.91118164 11.09082031 76.91118164 10.203125 78.68164062 C9.59379386 79.89194917 8.98441831 81.10223535 8.375 82.3125 C7.75762732 83.54222476 7.14043795 84.77204156 6.5234375 86.00195312 C5.01742513 89.00221215 3.50955101 92.00152027 2 95 C1.01 95 0.02 95 -1 95 C-1.40202637 94.1529248 -1.80405273 93.30584961 -2.21826172 92.43310547 C-3.74277658 89.25663412 -5.29217524 86.09494957 -6.859375 82.93945312 C-7.52873334 81.57885359 -8.18818816 80.2133304 -8.83691406 78.84277344 C-13.04410444 69.97531064 -16.71557471 64.11038964 -26 60 C-27.93186103 59.00682063 -29.86149547 58.00930021 -31.7890625 57.0078125 C-33.73231152 56.04270896 -35.67763959 55.08178055 -37.625 54.125 C-38.62917969 53.62742188 -39.63335937 53.12984375 -40.66796875 52.6171875 C-43.1101628 51.40771997 -45.55415584 50.20206405 -48 49 C-44.55169133 46.03017421 -41.38825509 44.1311477 -37.17578125 42.43359375 C-23.37348606 36.50239419 -14.50573819 31.87213129 -8.77734375 17.63671875 C-8.34010986 16.46568604 -8.34010986 16.46568604 -7.89404297 15.27099609 C-6.52095981 11.7831699 -4.71243994 8.5725186 -2.875 5.3125 C-2.31554687 4.27738281 -1.75609375 3.24226562 -1.1796875 2.17578125 C-0.79039062 1.45777344 -0.40109375 0.73976562 0 0 Z " fill="#FCD121" transform="translate(390,172)"/>
<path d="M0 0 C0.33 0 0.66 0 1 0 C1 34.65 1 69.3 1 105 C-1.59206915 101.5439078 -3.6121511 98.14819845 -5.57421875 94.3359375 C-5.90291458 93.70265533 -6.23161041 93.06937317 -6.57026672 92.41690063 C-7.26033353 91.08486417 -7.9485488 89.75186705 -8.63500977 88.41796875 C-9.68906505 86.37196211 -10.75136515 84.3303876 -11.81445312 82.2890625 C-12.48487393 80.99244535 -13.15481285 79.6955789 -13.82421875 78.3984375 C-14.30226204 77.48123428 -14.30226204 77.48123428 -14.78996277 76.54550171 C-17 72.22973172 -17 72.22973172 -17 70 C-17.87398438 69.72599365 -18.74796875 69.4519873 -19.6484375 69.16967773 C-22.79867496 68.07026138 -25.65055565 66.78902261 -28.625 65.28515625 C-29.66140625 64.76373047 -30.6978125 64.24230469 -31.765625 63.70507812 C-32.83296875 63.16302734 -33.9003125 62.62097656 -35 62.0625 C-36.60101563 61.25522461 -36.60101563 61.25522461 -38.234375 60.43164062 C-40.22749371 59.42640476 -42.21978223 58.4195198 -44.2109375 57.41040039 C-47.13612063 55.93116519 -50.06716003 54.46398677 -53 53 C-50.98081959 50.83254866 -49.10333628 49.35234358 -46.48046875 47.984375 C-45.79412354 47.62335693 -45.10777832 47.26233887 -44.40063477 46.89038086 C-43.30513306 46.32589233 -43.30513306 46.32589233 -42.1875 45.75 C-41.06202759 45.16327515 -41.06202759 45.16327515 -39.91381836 44.56469727 C-37.6128958 43.36916988 -35.30721684 42.18332783 -33 41 C-32.29584961 40.63696777 -31.59169922 40.27393555 -30.86621094 39.89990234 C-19.39739656 34 -19.39739656 34 -17 34 C-16.60470093 32.7147644 -16.60470093 32.7147644 -16.20141602 31.40356445 C-14.97449825 27.92775454 -13.47985588 24.81051111 -11.77734375 21.54296875 C-11.47180069 20.9545369 -11.16625763 20.36610504 -10.85145569 19.75984192 C-10.21057734 18.52769863 -9.56759896 17.29664554 -8.92260742 16.06665039 C-7.93242204 14.17781349 -6.94911013 12.28551902 -5.96679688 10.39257812 C-1.15269328 1.15269328 -1.15269328 1.15269328 0 0 Z " fill="#FCEC4A" transform="translate(282,94)"/>
<path d="M0 0 C3.65881177 1.53956134 5.9829179 3.74089057 8.76855469 6.54150391 C9.22755661 7.00021378 9.68655853 7.45892365 10.1594696 7.93153381 C11.66839675 9.4418491 13.17012454 10.95911388 14.671875 12.4765625 C15.71947224 13.5278917 16.76751328 14.57877885 17.815979 15.62924194 C20.5691252 18.39001016 23.31621127 21.15673249 26.06207275 23.92474365 C28.86716916 26.75032928 31.67796321 29.57023445 34.48828125 32.390625 C39.99777532 37.92154374 45.50087877 43.45876589 51 49 C50.505 49.99 50.505 49.99 50 51 C15.78322096 36.47988903 15.78322096 36.47988903 9.8125 22.6875 C8.72659121 19.96357315 7.73466762 17.24343973 6.83203125 14.45361328 C5.65107245 10.97103232 4.03106623 7.87416429 2.3125 4.625 C1.54166667 3.08333333 0.77083333 1.54166667 0 0 Z " fill="#042959" transform="translate(284,94)"/>
<path d="M0 0 C3.35999018 1.45868754 5.55203106 3.30868948 8.12597656 5.89892578 C8.92650452 6.6996048 9.72703247 7.50028381 10.55181885 8.32522583 C11.40612488 9.18985443 12.26043091 10.05448303 13.140625 10.9453125 C14.02280701 11.8303244 14.90498901 12.7153363 15.81390381 13.62716675 C18.15194543 15.97450131 20.48555874 18.32606785 22.81713867 20.67980957 C25.19996526 23.08313927 27.58850348 25.48077767 29.9765625 27.87890625 C34.65631862 32.58071467 39.33031867 37.28818664 44 42 C43.01 42.495 43.01 42.495 42 43 C38.2201462 41.57886818 34.63259871 39.75198919 31.01538086 37.96069336 C29.21550444 37.07626096 27.39976573 36.22434816 25.58398438 35.37304688 C18.49156054 31.88059561 14.29365414 29.20105724 11 22 C10.03996133 20.21745581 9.07480292 18.43766274 8.10546875 16.66015625 C7.12950448 14.79599899 6.15688507 12.93008699 5.1875 11.0625 C4.68541016 10.10537109 4.18332031 9.14824219 3.66601562 8.16210938 C0 1.13433248 0 1.13433248 0 0 Z " fill="#042958" transform="translate(392,175)"/>
</svg>
