<?xml version="1.0" encoding="UTF-8"?>
<svg version="1.1" xmlns="http://www.w3.org/2000/svg" width="512" height="512">
<path d="M0 0 C4.16965432 3.4891899 8.08814408 7.22725702 12 11 C13.09634766 12.00160156 13.09634766 12.00160156 14.21484375 13.0234375 C33.96488358 31.56109865 45.70289164 61.35031913 47 88 C47.07927734 89.58941406 47.07927734 89.58941406 47.16015625 91.2109375 C47.99399866 124.63714176 35.85782276 155.41918403 13.17651367 179.80249023 C-8.88022842 202.74939738 -38.67191704 214.69214777 -70.109375 216.25 C-103.12665092 216.8072536 -133.21143083 204.7907265 -157 182 C-157.74765625 181.31550781 -158.4953125 180.63101563 -159.265625 179.92578125 C-179.64222281 160.65350954 -192.37953932 131.00059865 -193.23828125 103.11328125 C-193.83044054 66.91421066 -183.2858632 36.37587772 -158.0078125 9.94921875 C-116.33560618 -31.93038077 -46.63509252 -35.67331126 0 0 Z " fill="#FFF06B" transform="translate(329,160)"/>
<path d="M0 0 C33.21974633 0 61.19902976 12.04543696 85 35 C86.09634766 36.00160156 86.09634766 36.00160156 87.21484375 37.0234375 C106.96488358 55.56109865 118.70289164 85.35031913 120 112 C120.05285156 113.05960937 120.10570312 114.11921875 120.16015625 115.2109375 C120.99399866 148.63714176 108.85782276 179.41918403 86.17651367 203.80249023 C68.19278983 222.51200044 42.8477293 235.80533683 17 239 C11.39 239 5.78 239 0 239 C0 160.13 0 81.26 0 0 Z " fill="#FFD844" transform="translate(256,136)"/>
<path d="M0 0 C3.99158481 2.07158199 6.51119161 4.04932385 8.0390625 8.2734375 C8.89479631 15.26906141 8.39422315 19.64856661 4.0390625 25.2734375 C1.73573298 27.85836962 -0.69118417 30.30784537 -3.140625 32.75390625 C-3.83100861 33.44857498 -4.52139221 34.14324371 -5.23269653 34.85896301 C-6.68757973 36.31956601 -8.14505937 37.77758684 -9.60498047 39.2331543 C-11.83060513 41.45561272 -14.0425566 43.69108268 -16.25390625 45.92773438 C-17.67366794 47.34976873 -19.09421486 48.77101963 -20.515625 50.19140625 C-21.17207001 50.857061 -21.82851501 51.52271576 -22.50485229 52.20854187 C-26.51957183 56.18339716 -30.33917326 59.59435671 -36.0859375 60.671875 C-40.73854282 60.61371743 -44.00961422 59.96752155 -47.9609375 57.2734375 C-51.46166511 53.11041007 -52.86704478 49.71921546 -52.9609375 44.2734375 C-51.00822316 37.19525454 -47.63364402 33.23239426 -42.44140625 28.16015625 C-41.70521561 27.42392532 -40.96902496 26.6876944 -40.21052551 25.92915344 C-38.65891994 24.38288616 -37.10122863 22.84270419 -35.5378418 21.30834961 C-33.15232934 18.96476095 -30.78892439 16.60048795 -28.42773438 14.23242188 C-26.9127182 12.72789696 -25.39648242 11.22459893 -23.87890625 9.72265625 C-23.17557663 9.01952805 -22.47224701 8.31639984 -21.74760437 7.59196472 C-15.57132461 1.56224122 -8.9293739 -3.30849312 0 0 Z " fill="#FFD844" transform="translate(133.9609375,369.7265625)"/>
<path d="M0 0 C3.84457862 3.95765447 4.33515638 7.48089777 4.5859375 12.9296875 C3.1262827 20.07952204 -2.35685157 25.09932657 -7.34375 30.01953125 C-8.4197345 31.0962635 -8.4197345 31.0962635 -9.51745605 32.19474792 C-11.02675825 33.70172069 -12.53972747 35.20502879 -14.05615234 36.70483398 C-16.37647911 39.00146401 -18.68309129 41.31123422 -20.98828125 43.62304688 C-22.46014551 45.0893371 -23.93277561 46.55485906 -25.40625 48.01953125 C-26.09489136 48.70908401 -26.78353271 49.39863678 -27.49304199 50.10908508 C-28.14051392 50.74702499 -28.78798584 51.3849649 -29.45507812 52.04223633 C-30.02037231 52.60292313 -30.5856665 53.16360992 -31.16809082 53.74128723 C-35.57312159 57.47353721 -39.57585688 57.61954839 -45.1796875 57.5 C-49.02902532 57.05369996 -51.08074624 55.84204107 -53.875 53.1875 C-56.50572879 49.32909778 -57.22261137 46.07250309 -57.37109375 41.41015625 C-55.79780235 34.36131527 -50.49403646 29.3269982 -45.58203125 24.390625 C-44.87656662 23.67517517 -44.17110199 22.95972534 -43.44425964 22.22259521 C-41.95629266 20.71950785 -40.46429408 19.22040196 -38.96850586 17.72509766 C-36.69593169 15.44595605 -34.44844861 13.14389845 -32.20117188 10.83984375 C-30.74626689 9.37613633 -29.28993254 7.91384802 -27.83203125 6.453125 C-27.16919632 5.76873352 -26.50636139 5.08434204 -25.82344055 4.37921143 C-17.99162863 -3.34089073 -9.67281842 -6.09808118 0 0 Z " fill="#FFA800" transform="translate(425.875,84.8125)"/>
<path d="M0 0 C4.55204379 2.32917739 6.30313926 4.60694093 8.02734375 9.31640625 C8.4742239 13.45241952 8.47151931 17.56558252 8.4609375 21.72265625 C8.46617935 22.92071899 8.4714212 24.11878174 8.4768219 25.35314941 C8.48323377 27.88142117 8.48191598 30.40972278 8.47338867 32.93798828 C8.4648734 36.80294925 8.49366343 40.6664347 8.52539062 44.53125 C8.52700264 46.99088497 8.5264251 49.45052256 8.5234375 51.91015625 C8.54028847 53.64005798 8.54028847 53.64005798 8.55747986 55.40490723 C8.50321425 61.65998753 8.32153372 65.61060593 4.02734375 70.31640625 C-0.69369404 73.61015355 -5.37447073 74.22937199 -10.97265625 73.31640625 C-16.09028443 70.66282127 -19.14971567 67.78522799 -20.97265625 62.31640625 C-21.07491418 60.64573788 -21.12107699 58.97135409 -21.13378906 57.29760742 C-21.14339661 56.27612106 -21.15300415 55.2546347 -21.16290283 54.20219421 C-21.16715271 53.09906387 -21.17140259 51.99593353 -21.17578125 50.859375 C-21.18148132 49.72365555 -21.1871814 48.5879361 -21.1930542 47.4178009 C-21.20250578 45.01283704 -21.20903881 42.60786021 -21.21289062 40.20288086 C-21.22259026 36.52890337 -21.25361051 32.85548665 -21.28515625 29.18164062 C-21.29168697 26.84505541 -21.29693717 24.50846618 -21.30078125 22.171875 C-21.31312805 21.07481735 -21.32547485 19.9777597 -21.3381958 18.84745789 C-21.32195525 13.26847535 -21.21902612 9.08663182 -17.97265625 4.31640625 C-12.78285779 -0.48415733 -6.86661298 -2.37951935 0 0 Z " fill="#FFD742" transform="translate(261.97265625,422.68359375)"/>
<path d="M0 0 C4.45742939 2.68023013 7.81129319 6.09411258 11.45214844 9.78100586 C12.21577698 10.54413589 12.97940552 11.30726593 13.76617432 12.09352112 C15.37327771 13.70295832 16.97670534 15.31607335 18.57666016 16.93261719 C21.02703535 19.40664276 23.49051713 21.86702192 25.95605469 24.32592773 C27.51804732 25.89349562 29.07927198 27.4618292 30.63964844 29.03100586 C31.37608582 29.76653183 32.11252319 30.5020578 32.87127686 31.25987244 C33.55248596 31.95061356 34.23369507 32.64135468 34.93554688 33.35302734 C35.53477966 33.95686752 36.13401245 34.5607077 36.75140381 35.18284607 C40.16076305 39.1735549 40.72724567 42.60796895 40.59277344 47.72631836 C39.91857949 52.57208737 37.12276285 55.22788658 33.59277344 58.34741211 C29.42781792 60.39059783 25.83692878 61.00525399 21.28027344 59.97241211 C15.89520899 56.81193704 11.72248122 52.72107153 7.32714844 48.32006836 C6.58571594 47.58292099 5.84428345 46.84577362 5.0803833 46.08628845 C3.52142614 44.53305293 1.96505413 42.9772189 0.41113281 41.41894531 C-1.96715805 39.03748404 -4.35849361 36.66968319 -6.75097656 34.30249023 C-8.26741173 32.78832722 -9.78306401 31.27337967 -11.29785156 29.75756836 C-12.01241516 29.05221451 -12.72697876 28.34686066 -13.4631958 27.62013245 C-17.90915881 23.1322858 -20.44493712 19.99509595 -21.03222656 13.53491211 C-20.57251104 8.29415521 -19.08046427 5.23109449 -15.21972656 1.65991211 C-10.39834727 -1.59451891 -5.46209666 -2.06373113 0 0 Z " fill="#FFA700" transform="translate(389.7197265625,370.027587890625)"/>
<path d="M0 0 C1.02148636 -0.00960754 2.04297272 -0.01921509 3.09541321 -0.02911377 C4.75010872 -0.03548859 4.75010872 -0.03548859 6.43823242 -0.04199219 C7.57395187 -0.04769226 8.70967133 -0.05339233 9.87980652 -0.05926514 C12.28477038 -0.06871672 14.68974721 -0.07524974 17.09472656 -0.07910156 C20.76870405 -0.08880119 24.44212077 -0.11982145 28.1159668 -0.15136719 C30.45255202 -0.15789791 32.78914124 -0.16314811 35.12573242 -0.16699219 C36.22279007 -0.17933899 37.31984772 -0.19168579 38.45014954 -0.20440674 C44.0267196 -0.18817321 48.21590956 -0.08962376 52.98120117 3.16113281 C57.16069612 7.79246505 58.3412826 10.65512414 58.26245117 16.77441406 C57.7928863 20.75919375 56.37237985 22.92981027 53.98120117 26.16113281 C50.38015768 28.77919987 47.86934755 29.53820874 43.4440918 29.54931641 C41.81715393 29.56350113 41.81715393 29.56350113 40.15734863 29.57797241 C38.99578247 29.57189972 37.83421631 29.56582703 36.63745117 29.55957031 C34.83467712 29.56387558 34.83467712 29.56387558 32.9954834 29.56826782 C30.45702645 29.57030732 27.91855375 29.5647855 25.38012695 29.55224609 C21.49549199 29.53619187 17.61189753 29.55209977 13.72729492 29.57128906 C11.25984471 29.56930661 8.79239514 29.5654629 6.32495117 29.55957031 C5.16338501 29.56564301 4.00181885 29.5717157 2.80505371 29.57797241 C1.72042847 29.56851593 0.63580322 29.55905945 -0.48168945 29.54931641 C-1.90801697 29.54573624 -1.90801697 29.54573624 -3.36315918 29.54208374 C-7.79860544 28.90581994 -10.35920817 26.91233329 -13.26879883 23.59863281 C-16.22184409 19.48546262 -16.53019703 16.14494077 -16.01879883 11.16113281 C-14.30151295 6.46119252 -12.15273217 3.95153782 -8.01879883 1.16113281 C-5.05917343 0.17459101 -3.08868525 0.0234585 0 0 Z " fill="#FFA700" transform="translate(438.018798828125,240.8388671875)"/>
<path d="M0 0 C1.10170532 -0.0038269 2.20341064 -0.00765381 3.33850098 -0.01159668 C5.65813109 -0.01430778 7.9777922 -0.00700314 10.29736328 0.00976562 C13.83305496 0.03118521 17.36671472 0.00993495 20.90234375 -0.015625 C23.16406695 -0.01298158 25.4257889 -0.00785632 27.6875 0 C28.73667603 -0.00809692 29.78585205 -0.01619385 30.86682129 -0.02453613 C37.45869828 0.05902701 41.71861294 1.03051703 47.34375 4.53125 C50.43100778 8.21604154 51.18212392 11.76328059 51.34375 16.53125 C50.4162288 20.95353857 49.07357117 23.83702986 45.78125 26.96875 C42.22614674 29.24766235 40.36873868 29.66487847 36.16308594 29.70825195 C34.54064972 29.72750481 34.54064972 29.72750481 32.88543701 29.74714661 C31.12456757 29.75822701 31.12456757 29.75822701 29.328125 29.76953125 C27.5225412 29.78163887 27.5225412 29.78163887 25.68048096 29.79399109 C23.1283106 29.80784204 20.57612163 29.81855965 18.02392578 29.82641602 C14.12366518 29.84361806 10.22425431 29.88749579 6.32421875 29.93164062 C3.84636041 29.94176819 1.36849485 29.95028409 -1.109375 29.95703125 C-2.27519104 29.97453934 -3.44100708 29.99204742 -4.64215088 30.01008606 C-12.35312296 29.98946982 -15.82993488 29.09368132 -21.46875 23.84375 C-23.69097421 19.51626075 -24.2851688 15.05135422 -23.1015625 10.30859375 C-21.09885503 5.5676712 -18.8318356 3.68794183 -14.0980072 1.3931427 C-9.49582977 -0.23133623 -4.83218077 -0.03729193 0 0 Z " fill="#FFD844" transform="translate(38.65625,240.46875)"/>
<path d="M0 0 C2.90789728 2.29085566 4.81439428 4.53570788 6.1640625 7.94921875 C6.43148804 10.47787476 6.43148804 10.47787476 6.45458984 13.35693359 C6.4737294 14.97914322 6.4737294 14.97914322 6.49325562 16.63412476 C6.49548126 17.79771515 6.49770691 18.96130554 6.5 20.16015625 C6.5066568 21.36104889 6.5133136 22.56194153 6.52017212 23.79922485 C6.53029694 26.33944161 6.53498919 28.87968496 6.53466797 31.41992188 C6.53903809 35.30253023 6.57535365 39.18399924 6.61328125 43.06640625 C6.61915001 45.53515236 6.62311901 48.00390388 6.625 50.47265625 C6.63937103 51.63219818 6.65374207 52.79174011 6.66854858 53.98641968 C6.63301287 60.26844696 6.46470613 64.21464701 2.1640625 68.94921875 C-1.35872344 71.63766065 -4.41622533 72.68403602 -8.8359375 72.94921875 C-14.36565151 71.97909349 -17.29203409 70.30315723 -20.8359375 65.94921875 C-22.51225395 62.43616612 -23.09590108 59.61277139 -23.14233398 55.73510742 C-23.15832138 54.72022751 -23.17430878 53.7053476 -23.19078064 52.65971375 C-23.19614334 51.57318008 -23.20150604 50.48664642 -23.20703125 49.3671875 C-23.21605972 48.23904129 -23.2250882 47.11089508 -23.23439026 45.94856262 C-23.24888272 43.56396127 -23.25777699 41.17932025 -23.26147461 38.79467773 C-23.2733615 35.15995734 -23.32255252 31.52694001 -23.37304688 27.89257812 C-23.38251272 25.57162284 -23.38974698 23.25065716 -23.39453125 20.9296875 C-23.41406357 19.84922653 -23.43359589 18.76876556 -23.45372009 17.65556335 C-23.41378348 10.92467188 -22.46571687 6.04059006 -17.8359375 0.94921875 C-12.26506839 -2.5861405 -5.87662472 -3.36342989 0 0 Z " fill="#FFD742" transform="translate(263.8359375,17.05078125)"/>
<path d="M0 0 C0.75974121 0.79273315 1.51948242 1.58546631 2.30224609 2.40222168 C3.10839355 3.2159021 3.91454102 4.02958252 4.74511719 4.86791992 C7.30189103 7.45709414 9.83297943 10.0698643 12.36474609 12.68347168 C14.09624969 14.4415291 15.82930751 16.1980572 17.56396484 17.95300293 C20.71771405 21.15698477 23.86847719 24.36358081 26.99755859 27.5916748 C27.62549316 28.2385022 28.25342773 28.88532959 28.90039062 29.55175781 C32.23586133 33.26843311 31.80965862 37.32916691 31.78662109 42.12097168 C31.22916123 46.16771735 29.78272003 48.1222685 26.97021484 50.97644043 C23.96580647 53.2352292 20.82149757 53.47787216 17.17724609 53.68347168 C15.82566406 53.79175293 15.82566406 53.79175293 14.44677734 53.90222168 C11.11201376 53.12453283 10.12656734 52.32920011 7.64038086 50.08532715 C6.58209328 49.13197479 6.58209328 49.13197479 5.50242615 48.15936279 C0.11063727 43.17564799 -5.14468969 38.05909193 -10.37353516 32.90515137 C-11.80171508 31.5037335 -13.23700915 30.10953012 -14.67919922 28.72253418 C-16.78332253 26.6976856 -18.86339166 24.65060626 -20.93994141 22.59753418 C-21.58260956 21.98785797 -22.22527771 21.37818176 -22.88742065 20.75003052 C-27.26623118 16.35134631 -29.15517874 12.41268359 -29.63525391 6.18347168 C-29.07398455 1.45277278 -27.7571353 -1.03459695 -24.32275391 -4.19152832 C-15.63564312 -10.86294399 -7.09851014 -7.07250969 0 0 Z " fill="#FFD843" transform="translate(110.63525390625,88.8165283203125)"/>
<path d="M0 0 C6 0 6 0 9.25 2.25 C13.23981563 6.23981563 14.24551548 8.7981186 14.29052734 14.40771484 C14.3096669 16.02992447 14.3096669 16.02992447 14.32919312 17.68490601 C14.33141876 18.8484964 14.33364441 20.01208679 14.3359375 21.2109375 C14.3425943 22.41183014 14.3492511 23.61272278 14.35610962 24.8500061 C14.36623444 27.39022286 14.37092669 29.93046621 14.37060547 32.47070312 C14.37497559 36.35331148 14.41129115 40.23478049 14.44921875 44.1171875 C14.45508751 46.58593361 14.45905651 49.05468513 14.4609375 51.5234375 C14.47530853 52.68297943 14.48967957 53.84252136 14.50448608 55.03720093 C14.46896166 61.31723301 14.30455391 65.26984062 10 70 C6.47301214 72.622632 4.47699417 73.10460117 0 74 C0 49.58 0 25.16 0 0 Z " fill="#FFA901" transform="translate(256,16)"/>
<path d="M0 0 C7.3 0 7.3 0 11 3 C14.95420974 8.72509884 14.45061735 14.71851365 14.43359375 21.40625 C14.4388356 22.60431274 14.44407745 23.80237549 14.44947815 25.03674316 C14.45589002 27.56501492 14.45457223 30.09331653 14.44604492 32.62158203 C14.43752965 36.486543 14.46631968 40.35002845 14.49804688 44.21484375 C14.49965889 46.67447872 14.49908135 49.13411631 14.49609375 51.59375 C14.51294472 53.32365173 14.51294472 53.32365173 14.53013611 55.08850098 C14.47595278 61.33409632 14.31344549 65.31590975 10 70 C6.24779819 72.34512613 4.47038145 73 0 73 C0 48.91 0 24.82 0 0 Z " fill="#FFA901" transform="translate(256,423)"/>
</svg>
